<svg xmlns="http://www.w3.org/2000/svg" width="183.259" height="35"><g data-name="Grupo 9158"><path data-name="Caminho 1" d="M171.209 14.758l4.52-14.7h-6.786l-5.532 18-.464 1.612h18.818l1.489-4.914z" fill="#ca0019"/><path data-name="Caminho 2" d="M111.821.213h-14.3a5.96 5.96 0 00-5.389 4.321c-.231.66-3.575 11.068-3.575 11.068s-1.231 3.651 2.909 4.069h14.3a6.029 6.029 0 005.389-4.369c.195-.556 3.575-11.068 3.575-11.068s1.23-3.603-2.909-4.021zm-7.1 14.517a.259.259 0 01-.054.121.255.255 0 01-.093.023h-9l2.287-7.538-2.255-2.368h12.1z" fill="#ca0019"/><path data-name="Caminho 3" d="M70.843 12.977l-.531 1.753a.13.13 0 01-.147.144h-9l2.287-7.538-2.256-2.368h12.1l-.68 2.083h6.767c.357-1.11.932-2.812.932-2.812s1.232-3.6-2.908-4.021H63.108a5.96 5.96 0 00-5.389 4.321c-.231.66-3.575 11.068-3.575 11.068s-1.231 3.651 2.909 4.069h14.3a6.03 6.03 0 005.389-4.369c.043-.123.456-1.449.739-2.325z" fill="#ca0019"/><path data-name="Caminho 4" d="M90.776.06H83.99l-5.991 19.612h6.834z" fill="#ca0019"/><path data-name="Caminho 5" d="M136.925.06h-14.3a6.028 6.028 0 00-5.389 4.369c-.319.909-4.836 15.243-4.836 15.243h6.786l2.984-9.851h-.012l.783-2.58-2.255-2.368 12.131-.015-4.524 14.814h6.786L139.29 6.01l.545-1.881s1.23-3.651-2.91-4.069z" fill="#ca0019"/><path data-name="Caminho 6" d="M52.153.06h-14.3a6.028 6.028 0 00-5.389 4.369c-.319.909-4.837 15.243-4.837 15.243h6.787l1.938-6.4h9.117l-1.955 6.4H50.3L54.511 6.01l.545-1.881S56.293.478 52.153.06zm-14.46 8.781h-.1l.485-1.6-2.255-2.376h12.219l-1.214 3.976z" fill="#ca0019"/><path data-name="Caminho 7" d="M162.115.06h-14.3a6.028 6.028 0 00-5.389 4.369c-.319.909-4.836 15.243-4.836 15.243h6.786l1.938-6.4h9.124l-1.955 6.4h6.787l4.211-13.662.545-1.881S166.253.478 162.115.06zm-14.461 8.781h-.1l.485-1.6-2.255-2.376h12.219l-1.215 3.976z" fill="#ca0019"/><path data-name="Caminho 8" d="M25.047 0l-4.378 14.671h-.108L16.061 0H6.066L.003 19.672h6.1L9.856 7.137 7.813 4.992h2.813v.01h.006l4.547 14.671h9.908L31.15.001z" fill="#ca0019"/><g data-name="Grupo 1" fill="#1a1818"><path data-name="Caminho 9" d="M29.354 34.141a3.011 3.011 0 00.628-.066 1.727 1.727 0 00.557-.22 1.211 1.211 0 00.4-.4 1.159 1.159 0 00.157-.625.963.963 0 00-.1-.445 1.147 1.147 0 00-.266-.337 2.282 2.282 0 00-.4-.276q-.23-.127-.506-.271-.235-.122-.475-.266a1.846 1.846 0 01-.429-.352 1.7 1.7 0 01-.307-.5 1.806 1.806 0 01-.118-.685 2 2 0 01.179-.848 1.848 1.848 0 01.526-.669 2.486 2.486 0 01.853-.434 3.992 3.992 0 011.16-.153 3.524 3.524 0 01.582.046 3.828 3.828 0 01.909.266 1.367 1.367 0 01.256.138l-.46.777a1.669 1.669 0 00-.557-.261 3.11 3.11 0 00-.9-.118 2.666 2.666 0 00-.608.066 1.408 1.408 0 00-.486.209 1.077 1.077 0 00-.327.363 1.218 1.218 0 00-.041.971 1.033 1.033 0 00.225.317 1.585 1.585 0 00.353.25q.209.113.455.235.306.154.577.312a2.166 2.166 0 01.475.373 1.608 1.608 0 01.322.5 1.837 1.837 0 01.117.7 2.11 2.11 0 01-.22.986 2.006 2.006 0 01-.6.705 2.732 2.732 0 01-.909.424 4.347 4.347 0 01-1.139.143 4.507 4.507 0 01-.741-.056 4.105 4.105 0 01-.583-.138 3.087 3.087 0 01-.424-.169 1.609 1.609 0 01-.266-.158l.46-.808a3.348 3.348 0 00.613.3 2.871 2.871 0 001.058.174z"/><path data-name="Caminho 10" d="M40.923 34.846l1.7-7.082h4.18l-.194.827h-3.2l-.511 2.136h2.841l-.194.808h-2.834l-.6 2.483h3.434l-.194.828z"/><path data-name="Caminho 11" d="M61.761 29.287q-.164.225-.409.582t-.531.788q-.286.429-.593.894l-.593.9-.532.808-.4.608h-.8q-.041-.245-.108-.618t-.148-.807l-.169-.9q-.087-.466-.174-.894l-.158-.782a27.045 27.045 0 00-.123-.577q-.429 1.318-.838 2.718t-.8 2.842h-.981q.246-.92.516-1.855t.552-1.839q.281-.9.562-1.763t.547-1.625h.971q.123.45.261 1.063t.276 1.283q.138.67.256 1.334t.2 1.206l.812-1.216.894-1.334q.45-.67.874-1.277.424-.608.762-1.057h.95q-.174 1.727-.465 3.51t-.639 3.572h-.991q.307-1.472.562-2.857t.457-2.707z"/><path data-name="Caminho 12" d="M72.911 27.764h.991l-1.7 7.082h-.991z"/><path data-name="Caminho 13" d="M86.441 34.846q-.184-.593-.44-1.349t-.557-1.533q-.3-.777-.618-1.507a13.527 13.527 0 00-.623-1.273l-1.359 5.662h-.971l1.7-7.082h.848q.327.551.669 1.252t.654 1.436q.312.736.577 1.441t.439 1.268l1.267-5.4h.971l-1.686 7.082z"/><path data-name="Caminho 14" d="M101.515 27.601a3.081 3.081 0 011.037.168 2.195 2.195 0 01.818.506 2.3 2.3 0 01.532.843 3.372 3.372 0 01.189 1.18 5.657 5.657 0 01-.261 1.686 4.819 4.819 0 01-.771 1.507 3.993 3.993 0 01-1.277 1.089 3.673 3.673 0 01-1.789.419 3.067 3.067 0 01-1.042-.168 2.211 2.211 0 01-.813-.506 2.285 2.285 0 01-.531-.843 3.365 3.365 0 01-.189-1.181 5.755 5.755 0 01.256-1.681 4.669 4.669 0 01.771-1.513 4.061 4.061 0 011.283-1.089 3.672 3.672 0 011.787-.417zm-1.421 6.54a2.352 2.352 0 001.236-.332 3.131 3.131 0 00.935-.864 4.055 4.055 0 00.588-1.2 4.492 4.492 0 00.2-1.329 2.349 2.349 0 00-.394-1.436 1.461 1.461 0 00-1.252-.527 2.343 2.343 0 00-1.242.332 3.16 3.16 0 00-.93.864 4.088 4.088 0 00-.588 1.2 4.491 4.491 0 00-.2 1.328 2.347 2.347 0 00.394 1.436 1.461 1.461 0 001.257.528z"/><path data-name="Caminho 15" d="M114.842 33.671q.429-.613.874-1.318t.889-1.466q.445-.762.869-1.548t.812-1.574h1.094q-.562 1.062-1.1 2.018t-1.063 1.829q-.527.874-1.053 1.676t-1.078 1.559h-.971q-.153-.767-.286-1.548t-.245-1.64q-.112-.859-.219-1.814t-.209-2.08h1.021q.164 1.819.312 3.26t.353 2.646z"/><path data-name="Caminho 16" d="M131.132 27.601a3.077 3.077 0 011.037.168 2.192 2.192 0 01.818.506 2.29 2.29 0 01.531.843 3.362 3.362 0 01.189 1.18 5.658 5.658 0 01-.261 1.686 4.827 4.827 0 01-.771 1.507 4 4 0 01-1.278 1.089 3.672 3.672 0 01-1.789.419 3.065 3.065 0 01-1.042-.168 2.207 2.207 0 01-.813-.506 2.29 2.29 0 01-.532-.843 3.375 3.375 0 01-.189-1.181 5.767 5.767 0 01.256-1.681 4.675 4.675 0 01.771-1.513 4.064 4.064 0 011.283-1.089 3.673 3.673 0 011.79-.417zm-1.421 6.54a2.353 2.353 0 001.236-.332 3.141 3.141 0 00.935-.864 4.072 4.072 0 00.588-1.2 4.491 4.491 0 00.2-1.329 2.35 2.35 0 00-.394-1.436 1.461 1.461 0 00-1.252-.527 2.345 2.345 0 00-1.242.332 3.158 3.158 0 00-.93.864 4.068 4.068 0 00-.588 1.2 4.491 4.491 0 00-.2 1.328 2.35 2.35 0 00.394 1.436 1.461 1.461 0 001.254.528z"/><path data-name="Caminho 17" d="M143.805 34.141a3.014 3.014 0 00.629-.066 1.727 1.727 0 00.557-.22 1.224 1.224 0 00.4-.4 1.163 1.163 0 00.154-.625.969.969 0 00-.1-.445 1.15 1.15 0 00-.266-.337 2.288 2.288 0 00-.4-.276q-.23-.127-.506-.271-.235-.122-.475-.266a1.846 1.846 0 01-.429-.352 1.69 1.69 0 01-.307-.5 1.8 1.8 0 01-.117-.685 2 2 0 01.179-.848 1.84 1.84 0 01.526-.669 2.483 2.483 0 01.853-.434 3.993 3.993 0 011.16-.153 3.534 3.534 0 01.583.046 3.836 3.836 0 01.506.118 3.777 3.777 0 01.4.148 1.391 1.391 0 01.256.138l-.46.777a1.672 1.672 0 00-.557-.261 3.109 3.109 0 00-.9-.118 2.664 2.664 0 00-.608.066 1.4 1.4 0 00-.486.209 1.081 1.081 0 00-.327.363 1.218 1.218 0 00-.041.971 1.031 1.031 0 00.225.317 1.576 1.576 0 00.353.25q.209.113.455.235c.2.1.4.207.577.312a2.174 2.174 0 01.475.373 1.6 1.6 0 01.321.5 1.828 1.828 0 01.118.7 2.111 2.111 0 01-.22.986 2 2 0 01-.6.705 2.737 2.737 0 01-.91.424 4.342 4.342 0 01-1.139.143 4.507 4.507 0 01-.741-.056 4.09 4.09 0 01-.583-.138 3.105 3.105 0 01-.424-.169 1.629 1.629 0 01-.266-.158l.46-.808a3.352 3.352 0 00.613.3 2.873 2.873 0 001.062.174z"/></g></g></svg>